<svg width="203" height="156" viewBox="0 0 203 156" fill="none" xmlns="http://www.w3.org/2000/svg">
<path d="M62.6392 9.7159C53.7202 10.0425 35.1091 10.228 28.5416 10.2658C24.6885 10.288 21.3837 9.31359 18.3237 9.76842C17.013 9.96324 16.3134 10.6652 14.8689 23.9109C13.4244 37.1566 11.2867 63.073 10.2518 77.4405C9.07173 93.8234 9.36466 97.9854 9.46239 105.411C9.64711 119.449 11.1299 129.076 11.7146 132.112C12.8731 138.127 12.8043 142.888 13.9249 144.358C15.4751 146.391 18.9639 146.616 30.3212 146.262C40.1455 145.956 58.1807 144.576 67.9925 144.064C77.8043 143.551 78.8375 143.739 79.8862 143.93C80.935 144.12 81.9681 144.308 84.5728 144.401" stroke="black" stroke-width="17.8976" stroke-linecap="round"/>
<path d="M141.269 144.726C150.053 144.404 168.38 144.221 174.848 144.184C178.642 144.162 181.896 145.122 184.91 144.674C186.201 144.482 186.889 143.791 188.312 130.747C189.734 117.703 191.84 92.1815 192.859 78.033C194.021 61.8997 193.732 57.8011 193.636 50.4884C193.454 36.6648 191.994 27.1838 191.418 24.194C190.277 18.271 190.345 13.5825 189.242 12.1351C187.715 10.1328 184.279 9.91124 173.095 10.26C163.421 10.5617 145.66 11.9202 135.998 12.4249C126.335 12.9295 125.318 12.7445 124.285 12.5568C123.252 12.369 122.235 12.1841 119.67 12.0924" stroke="black" stroke-width="17.8976" stroke-linecap="round"/>
<path d="M86.7897 57.9448C86.7205 56.8848 86.765 54.3122 87.9536 51.2339C89.0467 48.4028 90.5569 46.7705 92.1648 45.1653C95.1309 42.2042 97.2079 41.9369 99.1864 41.0585C103.042 39.3467 107.161 40.1041 110.057 40.9299C114.301 42.1406 115.706 44.4739 117.244 45.8208C119.426 47.7312 119.655 53.9355 119.298 58.2797C119.106 60.6234 116.309 63.1848 114.481 64.925C112.449 66.8602 110.457 68.9375 106.966 72.8558C105.217 74.8187 104.206 76.7425 102.864 79.932C102.034 82.8888 101.771 85.4692 101.669 87.9973C101.688 89.1153 101.812 91.0177 101.94 92.9776" stroke="black" stroke-width="17.8976" stroke-linecap="round"/>
<path d="M102.976 118.637C102.99 118.848 103.229 119.26 103.792 119.706C104.074 119.929 104.546 119.821 104.753 119.648C104.96 119.475 104.94 119.158 104.665 119.012C104.39 118.866 103.862 118.9 103.6 119.077C103.338 119.253 103.359 119.57 103.633 119.716C103.908 119.862 104.437 119.828 104.699 119.651C104.96 119.475 104.94 119.158 104.767 118.952C104.595 118.747 104.271 118.662 103.937 118.574" stroke="black" stroke-width="17.8976" stroke-linecap="round"/>
</svg>
