<svg width="95" height="8" viewBox="0 0 95 8" fill="none" xmlns="http://www.w3.org/2000/svg">
<path d="M1.31641 2.50114C1.37511 2.79329 1.81384 3.78388 2.75812 4.41491C3.22454 4.7266 3.8689 4.51643 4.38258 4.45861C5.47402 4.33574 6.163 3.02439 7.122 2.18558C7.58364 1.78179 8.45853 1.80634 9.30321 1.86633C10.5692 1.95626 10.8456 3.85745 11.6194 4.61353C11.9847 4.97042 12.9996 4.83336 14.0938 4.74918C15.4332 4.64613 16.1387 3.28955 17.1691 2.41684C17.8827 1.81249 19.0744 1.75982 20.0475 1.83302C21.2611 1.92431 21.606 3.73919 22.245 4.68474C22.5459 5.13004 23.2004 5.31137 23.9008 5.47298C24.6221 5.6394 25.285 5.42178 25.8358 4.99528C27.2788 3.87806 28.0231 2.53626 29.171 2.2822C30.3999 2.0102 31.2301 3.16298 32.3589 4.3414C32.8004 4.80224 33.2829 5.04444 33.7939 5.22653C34.3286 5.41708 34.9093 5.31864 35.3788 5.11553C36.5776 4.59681 36.8956 2.70075 37.9347 2.063C38.7138 1.58483 39.7 2.08485 40.2939 2.43557C40.7784 2.86801 41.3035 3.64063 41.8374 4.56658C42.065 4.96253 42.2047 5.20835 42.9056 5.80225" stroke="#F12E1D" stroke-width="2.63322" stroke-linecap="round"/>
<path d="M42.9062 5.80227C42.9249 5.80227 43.6537 5.7956 44.862 5.72462C46.2994 5.64018 47.0384 3.87637 47.7371 2.78146C48.0575 2.27952 48.5823 2.02532 49.1098 1.81768C49.7247 1.57565 50.4298 1.63293 51.0102 1.72516C52.1972 1.91376 52.7972 3.71659 54.2364 4.33396C55.5127 4.88151 56.7479 4.30189 57.2711 4.01549C58.2302 3.49037 58.7872 2.30795 59.8952 1.60691C60.4058 1.28384 61.3215 1.36741 62.2807 1.44985C63.5696 1.56061 64.2075 3.27204 65.0091 4.31951C65.7938 5.34483 67.0689 5.1926 67.7405 5.12601C68.9332 5.00775 69.1985 3.34395 69.7484 2.40596C70.277 1.50418 71.7743 1.53061 73.1417 1.61949C74.4661 1.70558 75.1163 3.28759 76.1072 4.01252C76.5503 4.33668 77.2035 4.23359 77.8049 4.13936C79.0479 3.94463 79.3966 2.36852 80.1598 1.58451C80.5749 1.15799 81.3439 1.33837 82.0023 1.46443C83.8464 1.81749 85.0006 3.97694 86.1269 4.57952C86.6976 4.88486 87.3552 4.47618 87.8001 4.09773C88.8179 3.23192 89.6208 2.05656 90.6832 1.64154C91.5639 1.58947 92.3043 1.75291 92.6954 2.12262C92.8673 2.32889 92.9854 2.57305 93.3173 3.29056" stroke="#F12E1D" stroke-width="2.63322" stroke-linecap="round"/>
</svg>
