<svg width="166" height="143" viewBox="0 0 166 143" fill="none" xmlns="http://www.w3.org/2000/svg">
<g filter="url(#filter0_d_74_4129)">
<mask id="mask0_74_4129" style="mask-type:alpha" maskUnits="userSpaceOnUse" x="11" y="11" width="140" height="117">
<path d="M52 11C61.6518 11 67.5774 19.9663 76.9697 20.5908H141C146.523 20.5908 151 25.068 151 30.5908V118C151 123.523 146.523 128 141 128H21C15.4772 128 11 123.523 11 118V21C11 15.4772 15.4713 11 20.9941 11H52Z" fill="url(#paint0_linear_74_4129)"/>
</mask>
<g mask="url(#mask0_74_4129)">
<path d="M52 11C62 11 63.5 20.5 73.5 20.5C73.7853 20.5 74.0521 20.5306 74.3008 20.5908H141C146.523 20.5908 151 25.068 151 30.5908V118C151 123.523 146.523 128 141 128H21C15.4772 128 11 123.523 11 118V21C11 15.4772 15.4713 11 20.9941 11H52Z" fill="url(#paint1_linear_74_4129)"/>
<path d="M11 37C11 33.6863 13.6863 31 17 31H145C148.314 31 151 33.6863 151 37V118C151 123.523 146.523 128 141 128H21C15.4772 128 11 123.523 11 118V37Z" fill="url(#paint2_linear_74_4129)"/>
<g opacity="0.44">
<path d="M8 115L152 115" stroke="#7EB9F8" stroke-width="3"/>
<path d="M10.0282 120H151.493" stroke="#7EB9F8" stroke-width="3"/>
</g>
</g>
</g>
<defs>
<filter id="filter0_d_74_4129" x="0.2" y="0.2" width="165.6" height="142.6" filterUnits="userSpaceOnUse" color-interpolation-filters="sRGB">
<feFlood flood-opacity="0" result="BackgroundImageFix"/>
<feColorMatrix in="SourceAlpha" type="matrix" values="0 0 0 0 0 0 0 0 0 0 0 0 0 0 0 0 0 0 127 0" result="hardAlpha"/>
<feOffset dx="2" dy="2"/>
<feGaussianBlur stdDeviation="6.4"/>
<feComposite in2="hardAlpha" operator="out"/>
<feColorMatrix type="matrix" values="0 0 0 0 0 0 0 0 0 0 0 0 0 0 0 0 0 0 0.21 0"/>
<feBlend mode="normal" in2="BackgroundImageFix" result="effect1_dropShadow_74_4129"/>
<feBlend mode="normal" in="SourceGraphic" in2="effect1_dropShadow_74_4129" result="shape"/>
</filter>
<linearGradient id="paint0_linear_74_4129" x1="81" y1="11" x2="81" y2="128" gradientUnits="userSpaceOnUse">
<stop offset="0.0817308" stop-color="#3CADE4"/>
<stop offset="0.240385" stop-color="#0283CB"/>
</linearGradient>
<linearGradient id="paint1_linear_74_4129" x1="81" y1="3.5" x2="81" y2="128" gradientUnits="userSpaceOnUse">
<stop offset="0.124137" stop-color="#5AABFF"/>
<stop offset="0.321269" stop-color="#005EC3"/>
</linearGradient>
<linearGradient id="paint2_linear_74_4129" x1="81" y1="14.5" x2="81" y2="162" gradientUnits="userSpaceOnUse">
<stop stop-color="#89C3FF"/>
<stop offset="0.615385" stop-color="#60A1E6"/>
<stop offset="1" stop-color="#0366D0"/>
</linearGradient>
</defs>
</svg>
