<svg width="1117" height="11" viewBox="0 0 1117 11" fill="none" xmlns="http://www.w3.org/2000/svg">
<path d="M2 3.79929C2.08917 4.24308 2.75562 5.74784 4.19004 6.70641C4.89855 7.17988 5.87737 6.86062 6.65767 6.77279C8.31564 6.58615 9.36223 4.59413 10.819 3.31993C11.5203 2.70656 12.8493 2.74384 14.1324 2.83499C16.0554 2.97158 16.4754 5.85959 17.6508 7.00812C18.2057 7.55025 19.7473 7.34206 21.4095 7.21418C23.4441 7.05765 24.5159 4.99692 26.0811 3.67124C27.1651 2.7532 28.9753 2.67319 30.4536 2.78439C32.297 2.92305 32.821 5.67995 33.7916 7.11629C34.2488 7.79273 35.2429 8.06817 36.3069 8.31366C37.4025 8.56647 38.4095 8.23589 39.2463 7.58802C41.4381 5.89091 42.5688 3.85263 44.3125 3.4667C46.1793 3.05353 47.4404 4.80466 49.1552 6.59474C49.8258 7.29478 50.5588 7.66269 51.335 7.9393C52.1473 8.22875 53.0294 8.07922 53.7425 7.77068C55.5636 6.98272 56.0467 4.1025 57.6251 3.13372C58.8086 2.40737 60.3067 3.16692 61.2089 3.69968C61.9449 4.35658 62.7425 5.53023 63.5534 6.9368C63.8992 7.53826 64.1115 7.91168 65.1762 8.81384" stroke="#F12E1D" stroke-width="4" stroke-linecap="round"/>
<path d="M65.1758 8.81389C65.2042 8.81389 66.3112 8.80375 68.1467 8.69593C70.3302 8.56767 71.4527 5.88835 72.5141 4.22512C73.0008 3.46264 73.798 3.0765 74.5993 2.7611C75.5334 2.39343 76.6045 2.48045 77.4861 2.62055C79.2892 2.90705 80.2007 5.64563 82.3868 6.58346C84.3257 7.4152 86.202 6.53474 86.9967 6.09968C88.4536 5.302 89.2998 3.50584 90.9829 2.44092C91.7585 1.95016 93.1495 2.07711 94.6066 2.20233C96.5644 2.37059 97.5334 4.97034 98.7512 6.56149C99.9432 8.11901 101.88 7.88776 102.9 7.78661C104.712 7.60697 105.115 5.07957 105.95 3.65472C106.753 2.28487 109.028 2.32501 111.105 2.46003C113.117 2.59081 114.104 4.99396 115.61 6.09517C116.283 6.58759 117.275 6.43098 118.189 6.28784C120.077 5.99203 120.607 3.59784 121.766 2.40689C122.396 1.75899 123.565 2.033 124.565 2.22449C127.366 2.7608 129.119 6.04112 130.83 6.95646C131.697 7.4203 132.696 6.79949 133.372 6.2246C134.918 4.90939 136.138 3.12396 137.751 2.49352C139.089 2.41443 140.214 2.6627 140.808 3.22431C141.069 3.53765 141.249 3.90854 141.753 4.99847" stroke="#F12E1D" stroke-width="4" stroke-linecap="round"/>
<path d="M141 3.79929C141.089 4.24308 141.756 5.74784 143.19 6.70641C143.899 7.17988 144.877 6.86062 145.658 6.77279C147.316 6.58615 148.362 4.59413 149.819 3.31993C150.52 2.70656 151.849 2.74384 153.132 2.83499C155.055 2.97158 155.475 5.85959 156.651 7.00812C157.206 7.55025 158.747 7.34206 160.41 7.21418C162.444 7.05765 163.516 4.99692 165.081 3.67124C166.165 2.7532 167.975 2.67319 169.454 2.78439C171.297 2.92305 171.821 5.67995 172.792 7.11629C173.249 7.79273 174.243 8.06817 175.307 8.31366C176.403 8.56647 177.41 8.23589 178.246 7.58802C180.438 5.89091 181.569 3.85263 183.313 3.4667C185.179 3.05353 186.44 4.80466 188.155 6.59474C188.826 7.29478 189.559 7.66269 190.335 7.9393C191.147 8.22875 192.029 8.07922 192.742 7.77068C194.564 6.98272 195.047 4.1025 196.625 3.13372C197.809 2.40737 199.307 3.16692 200.209 3.69968C200.945 4.35658 201.743 5.53023 202.553 6.9368C202.899 7.53826 203.111 7.91168 204.176 8.81384" stroke="#F12E1D" stroke-width="4" stroke-linecap="round"/>
<path d="M204.176 8.81389C204.204 8.81389 205.311 8.80375 207.147 8.69593C209.33 8.56767 210.453 5.88835 211.514 4.22512C212.001 3.46264 212.798 3.0765 213.599 2.7611C214.533 2.39343 215.604 2.48045 216.486 2.62055C218.289 2.90705 219.201 5.64563 221.387 6.58346C223.326 7.4152 225.202 6.53474 225.997 6.09968C227.454 5.302 228.3 3.50584 229.983 2.44092C230.758 1.95016 232.15 2.07711 233.607 2.20233C235.564 2.37059 236.533 4.97034 237.751 6.56149C238.943 8.11901 240.88 7.88776 241.9 7.78661C243.712 7.60697 244.115 5.07957 244.95 3.65472C245.753 2.28487 248.028 2.32501 250.105 2.46003C252.117 2.59081 253.104 4.99396 254.61 6.09517C255.283 6.58759 256.275 6.43098 257.189 6.28784C259.077 5.99203 259.607 3.59784 260.766 2.40689C261.396 1.75899 262.565 2.033 263.565 2.22449C266.366 2.7608 268.119 6.04112 269.83 6.95646C270.697 7.4203 271.696 6.79949 272.372 6.2246C273.918 4.90939 275.138 3.12396 276.751 2.49352C278.089 2.41443 279.214 2.6627 279.808 3.22431C280.069 3.53765 280.249 3.90854 280.753 4.99847" stroke="#F12E1D" stroke-width="4" stroke-linecap="round"/>
<path d="M280 3.79929C280.089 4.24308 280.756 5.74784 282.19 6.70641C282.899 7.17988 283.877 6.86062 284.658 6.77279C286.316 6.58615 287.362 4.59413 288.819 3.31993C289.52 2.70656 290.849 2.74384 292.132 2.83499C294.055 2.97158 294.475 5.85959 295.651 7.00812C296.206 7.55025 297.747 7.34206 299.41 7.21418C301.444 7.05765 302.516 4.99692 304.081 3.67124C305.165 2.7532 306.975 2.67319 308.454 2.78439C310.297 2.92305 310.821 5.67995 311.792 7.11629C312.249 7.79273 313.243 8.06817 314.307 8.31366C315.403 8.56647 316.41 8.23589 317.246 7.58802C319.438 5.89091 320.569 3.85263 322.313 3.4667C324.179 3.05353 325.44 4.80466 327.155 6.59474C327.826 7.29478 328.559 7.66269 329.335 7.9393C330.147 8.22875 331.029 8.07922 331.742 7.77068C333.564 6.98272 334.047 4.1025 335.625 3.13372C336.809 2.40737 338.307 3.16692 339.209 3.69968C339.945 4.35658 340.743 5.53023 341.553 6.9368C341.899 7.53826 342.111 7.91168 343.176 8.81384" stroke="#F12E1D" stroke-width="4" stroke-linecap="round"/>
<path d="M343.176 8.81389C343.204 8.81389 344.311 8.80375 346.147 8.69593C348.33 8.56767 349.453 5.88835 350.514 4.22512C351.001 3.46264 351.798 3.0765 352.599 2.7611C353.533 2.39343 354.604 2.48045 355.486 2.62055C357.289 2.90705 358.201 5.64563 360.387 6.58346C362.326 7.4152 364.202 6.53474 364.997 6.09968C366.454 5.302 367.3 3.50584 368.983 2.44092C369.758 1.95016 371.15 2.07711 372.607 2.20233C374.564 2.37059 375.533 4.97034 376.751 6.56149C377.943 8.11901 379.88 7.88776 380.9 7.78661C382.712 7.60697 383.115 5.07957 383.95 3.65472C384.753 2.28487 387.028 2.32501 389.105 2.46003C391.117 2.59081 392.104 4.99396 393.61 6.09517C394.283 6.58759 395.275 6.43098 396.189 6.28784C398.077 5.99203 398.607 3.59784 399.766 2.40689C400.396 1.75899 401.565 2.033 402.565 2.22449C405.366 2.7608 407.119 6.04112 408.83 6.95646C409.697 7.4203 410.696 6.79949 411.372 6.2246C412.918 4.90939 414.138 3.12396 415.751 2.49352C417.089 2.41443 418.214 2.6627 418.808 3.22431C419.069 3.53765 419.249 3.90854 419.753 4.99847" stroke="#F12E1D" stroke-width="4" stroke-linecap="round"/>
<path d="M419 3.79929C419.089 4.24308 419.756 5.74784 421.19 6.70641C421.899 7.17988 422.877 6.86062 423.658 6.77279C425.316 6.58615 426.362 4.59413 427.819 3.31993C428.52 2.70656 429.849 2.74384 431.132 2.83499C433.055 2.97158 433.475 5.85959 434.651 7.00812C435.206 7.55025 436.747 7.34206 438.41 7.21418C440.444 7.05765 441.516 4.99692 443.081 3.67124C444.165 2.7532 445.975 2.67319 447.454 2.78439C449.297 2.92305 449.821 5.67995 450.792 7.11629C451.249 7.79273 452.243 8.06817 453.307 8.31366C454.403 8.56647 455.41 8.23589 456.246 7.58802C458.438 5.89091 459.569 3.85263 461.313 3.4667C463.179 3.05353 464.44 4.80466 466.155 6.59474C466.826 7.29478 467.559 7.66269 468.335 7.9393C469.147 8.22875 470.029 8.07922 470.742 7.77068C472.564 6.98272 473.047 4.1025 474.625 3.13372C475.809 2.40737 477.307 3.16692 478.209 3.69968C478.945 4.35658 479.743 5.53023 480.553 6.9368C480.899 7.53826 481.111 7.91168 482.176 8.81384" stroke="#F12E1D" stroke-width="4" stroke-linecap="round"/>
<path d="M482.176 8.81389C482.204 8.81389 483.311 8.80375 485.147 8.69593C487.33 8.56767 488.453 5.88835 489.514 4.22512C490.001 3.46264 490.798 3.0765 491.599 2.7611C492.533 2.39343 493.604 2.48045 494.486 2.62055C496.289 2.90705 497.201 5.64563 499.387 6.58346C501.326 7.4152 503.202 6.53474 503.997 6.09968C505.454 5.302 506.3 3.50584 507.983 2.44092C508.758 1.95016 510.15 2.07711 511.607 2.20233C513.564 2.37059 514.533 4.97034 515.751 6.56149C516.943 8.11901 518.88 7.88776 519.9 7.78661C521.712 7.60697 522.115 5.07957 522.95 3.65472C523.753 2.28487 526.028 2.32501 528.105 2.46003C530.117 2.59081 531.104 4.99396 532.61 6.09517C533.283 6.58759 534.275 6.43098 535.189 6.28784C537.077 5.99203 537.607 3.59784 538.766 2.40689C539.396 1.75899 540.565 2.033 541.565 2.22449C544.366 2.7608 546.119 6.04112 547.83 6.95646C548.697 7.4203 549.696 6.79949 550.372 6.2246C551.918 4.90939 553.138 3.12396 554.751 2.49352C556.089 2.41443 557.214 2.6627 557.808 3.22431C558.069 3.53765 558.249 3.90854 558.753 4.99847" stroke="#F12E1D" stroke-width="4" stroke-linecap="round"/>
<path d="M558 3.79929C558.089 4.24308 558.756 5.74784 560.19 6.70641C560.899 7.17988 561.877 6.86062 562.658 6.77279C564.316 6.58615 565.362 4.59413 566.819 3.31993C567.52 2.70656 568.849 2.74384 570.132 2.83499C572.055 2.97158 572.475 5.85959 573.651 7.00812C574.206 7.55025 575.747 7.34206 577.41 7.21418C579.444 7.05765 580.516 4.99692 582.081 3.67124C583.165 2.7532 584.975 2.67319 586.454 2.78439C588.297 2.92305 588.821 5.67995 589.792 7.11629C590.249 7.79273 591.243 8.06817 592.307 8.31366C593.403 8.56647 594.41 8.23589 595.246 7.58802C597.438 5.89091 598.569 3.85263 600.313 3.4667C602.179 3.05353 603.44 4.80466 605.155 6.59474C605.826 7.29478 606.559 7.66269 607.335 7.9393C608.147 8.22875 609.029 8.07922 609.742 7.77068C611.564 6.98272 612.047 4.1025 613.625 3.13372C614.809 2.40737 616.307 3.16692 617.209 3.69968C617.945 4.35658 618.743 5.53023 619.553 6.9368C619.899 7.53826 620.111 7.91168 621.176 8.81384" stroke="#F12E1D" stroke-width="4" stroke-linecap="round"/>
<path d="M621.176 8.81389C621.204 8.81389 622.311 8.80375 624.147 8.69593C626.33 8.56767 627.453 5.88835 628.514 4.22512C629.001 3.46264 629.798 3.0765 630.599 2.7611C631.533 2.39343 632.604 2.48045 633.486 2.62055C635.289 2.90705 636.201 5.64563 638.387 6.58346C640.326 7.4152 642.202 6.53474 642.997 6.09968C644.454 5.302 645.3 3.50584 646.983 2.44092C647.758 1.95016 649.15 2.07711 650.607 2.20233C652.564 2.37059 653.533 4.97034 654.751 6.56149C655.943 8.11901 657.88 7.88776 658.9 7.78661C660.712 7.60697 661.115 5.07957 661.95 3.65472C662.753 2.28487 665.028 2.32501 667.105 2.46003C669.117 2.59081 670.104 4.99396 671.61 6.09517C672.283 6.58759 673.275 6.43098 674.189 6.28784C676.077 5.99203 676.607 3.59784 677.766 2.40689C678.396 1.75899 679.565 2.033 680.565 2.22449C683.366 2.7608 685.119 6.04112 686.83 6.95646C687.697 7.4203 688.696 6.79949 689.372 6.2246C690.918 4.90939 692.138 3.12396 693.751 2.49352C695.089 2.41443 696.214 2.6627 696.808 3.22431C697.069 3.53765 697.249 3.90854 697.753 4.99847" stroke="#F12E1D" stroke-width="4" stroke-linecap="round"/>
<path d="M697 3.79929C697.089 4.24308 697.756 5.74784 699.19 6.70641C699.899 7.17988 700.877 6.86062 701.658 6.77279C703.316 6.58615 704.362 4.59413 705.819 3.31993C706.52 2.70656 707.849 2.74384 709.132 2.83499C711.055 2.97158 711.475 5.85959 712.651 7.00812C713.206 7.55025 714.747 7.34206 716.41 7.21418C718.444 7.05765 719.516 4.99692 721.081 3.67124C722.165 2.7532 723.975 2.67319 725.454 2.78439C727.297 2.92305 727.821 5.67995 728.792 7.11629C729.249 7.79273 730.243 8.06817 731.307 8.31366C732.403 8.56647 733.41 8.23589 734.246 7.58802C736.438 5.89091 737.569 3.85263 739.313 3.4667C741.179 3.05353 742.44 4.80466 744.155 6.59474C744.826 7.29478 745.559 7.66269 746.335 7.9393C747.147 8.22875 748.029 8.07922 748.742 7.77068C750.564 6.98272 751.047 4.1025 752.625 3.13372C753.809 2.40737 755.307 3.16692 756.209 3.69968C756.945 4.35658 757.743 5.53023 758.553 6.9368C758.899 7.53826 759.111 7.91168 760.176 8.81384" stroke="#F12E1D" stroke-width="4" stroke-linecap="round"/>
<path d="M760.176 8.81389C760.204 8.81389 761.311 8.80375 763.147 8.69593C765.33 8.56767 766.453 5.88835 767.514 4.22512C768.001 3.46264 768.798 3.0765 769.599 2.7611C770.533 2.39343 771.604 2.48045 772.486 2.62055C774.289 2.90705 775.201 5.64563 777.387 6.58346C779.326 7.4152 781.202 6.53474 781.997 6.09968C783.454 5.302 784.3 3.50584 785.983 2.44092C786.758 1.95016 788.15 2.07711 789.607 2.20233C791.564 2.37059 792.533 4.97034 793.751 6.56149C794.943 8.11901 796.88 7.88776 797.9 7.78661C799.712 7.60697 800.115 5.07957 800.95 3.65472C801.753 2.28487 804.028 2.32501 806.105 2.46003C808.117 2.59081 809.104 4.99396 810.61 6.09517C811.283 6.58759 812.275 6.43098 813.189 6.28784C815.077 5.99203 815.607 3.59784 816.766 2.40689C817.396 1.75899 818.565 2.033 819.565 2.22449C822.366 2.7608 824.119 6.04112 825.83 6.95646C826.697 7.4203 827.696 6.79949 828.372 6.2246C829.918 4.90939 831.138 3.12396 832.751 2.49352C834.089 2.41443 835.214 2.6627 835.808 3.22431C836.069 3.53765 836.249 3.90854 836.753 4.99847" stroke="#F12E1D" stroke-width="4" stroke-linecap="round"/>
<path d="M836 3.79929C836.089 4.24308 836.756 5.74784 838.19 6.70641C838.899 7.17988 839.877 6.86062 840.658 6.77279C842.316 6.58615 843.362 4.59413 844.819 3.31993C845.52 2.70656 846.849 2.74384 848.132 2.83499C850.055 2.97158 850.475 5.85959 851.651 7.00812C852.206 7.55025 853.747 7.34206 855.41 7.21418C857.444 7.05765 858.516 4.99692 860.081 3.67124C861.165 2.7532 862.975 2.67319 864.454 2.78439C866.297 2.92305 866.821 5.67995 867.792 7.11629C868.249 7.79273 869.243 8.06817 870.307 8.31366C871.403 8.56647 872.41 8.23589 873.246 7.58802C875.438 5.89091 876.569 3.85263 878.313 3.4667C880.179 3.05353 881.44 4.80466 883.155 6.59474C883.826 7.29478 884.559 7.66269 885.335 7.9393C886.147 8.22875 887.029 8.07922 887.742 7.77068C889.564 6.98272 890.047 4.1025 891.625 3.13372C892.809 2.40737 894.307 3.16692 895.209 3.69968C895.945 4.35658 896.743 5.53023 897.553 6.9368C897.899 7.53826 898.111 7.91168 899.176 8.81384" stroke="#F12E1D" stroke-width="4" stroke-linecap="round"/>
<path d="M899.176 8.81389C899.204 8.81389 900.311 8.80375 902.147 8.69593C904.33 8.56767 905.453 5.88835 906.514 4.22512C907.001 3.46264 907.798 3.0765 908.599 2.7611C909.533 2.39343 910.604 2.48045 911.486 2.62055C913.289 2.90705 914.201 5.64563 916.387 6.58346C918.326 7.4152 920.202 6.53474 920.997 6.09968C922.454 5.302 923.3 3.50584 924.983 2.44092C925.758 1.95016 927.15 2.07711 928.607 2.20233C930.564 2.37059 931.533 4.97034 932.751 6.56149C933.943 8.11901 935.88 7.88776 936.9 7.78661C938.712 7.60697 939.115 5.07957 939.95 3.65472C940.753 2.28487 943.028 2.32501 945.105 2.46003C947.117 2.59081 948.104 4.99396 949.61 6.09517C950.283 6.58759 951.275 6.43098 952.189 6.28784C954.077 5.99203 954.607 3.59784 955.766 2.40689C956.396 1.75899 957.565 2.033 958.565 2.22449C961.366 2.7608 963.119 6.04112 964.83 6.95646C965.697 7.4203 966.696 6.79949 967.372 6.2246C968.918 4.90939 970.138 3.12396 971.751 2.49352C973.089 2.41443 974.214 2.6627 974.808 3.22431C975.069 3.53765 975.249 3.90854 975.753 4.99847" stroke="#F12E1D" stroke-width="4" stroke-linecap="round"/>
<path d="M975 3.79929C975.089 4.24308 975.756 5.74784 977.19 6.70641C977.899 7.17988 978.877 6.86062 979.658 6.77279C981.316 6.58615 982.362 4.59413 983.819 3.31993C984.52 2.70656 985.849 2.74384 987.132 2.83499C989.055 2.97158 989.475 5.85959 990.651 7.00812C991.206 7.55025 992.747 7.34206 994.41 7.21418C996.444 7.05765 997.516 4.99692 999.081 3.67124C1000.17 2.7532 1001.98 2.67319 1003.45 2.78439C1005.3 2.92305 1005.82 5.67995 1006.79 7.11629C1007.25 7.79273 1008.24 8.06817 1009.31 8.31366C1010.4 8.56647 1011.41 8.23589 1012.25 7.58802C1014.44 5.89091 1015.57 3.85263 1017.31 3.4667C1019.18 3.05353 1020.44 4.80466 1022.16 6.59474C1022.83 7.29478 1023.56 7.66269 1024.33 7.9393C1025.15 8.22875 1026.03 8.07922 1026.74 7.77068C1028.56 6.98272 1029.05 4.1025 1030.63 3.13372C1031.81 2.40737 1033.31 3.16692 1034.21 3.69968C1034.94 4.35658 1035.74 5.53023 1036.55 6.9368C1036.9 7.53826 1037.11 7.91168 1038.18 8.81384" stroke="#F12E1D" stroke-width="4" stroke-linecap="round"/>
<path d="M1038.18 8.81389C1038.2 8.81389 1039.31 8.80375 1041.15 8.69593C1043.33 8.56767 1044.45 5.88835 1045.51 4.22512C1046 3.46264 1046.8 3.0765 1047.6 2.7611C1048.53 2.39343 1049.6 2.48045 1050.49 2.62055C1052.29 2.90705 1053.2 5.64563 1055.39 6.58346C1057.33 7.4152 1059.2 6.53474 1060 6.09968C1061.45 5.302 1062.3 3.50584 1063.98 2.44092C1064.76 1.95016 1066.15 2.07711 1067.61 2.20233C1069.56 2.37059 1070.53 4.97034 1071.75 6.56149C1072.94 8.11901 1074.88 7.88776 1075.9 7.78661C1077.71 7.60697 1078.12 5.07957 1078.95 3.65472C1079.75 2.28487 1082.03 2.32501 1084.1 2.46003C1086.12 2.59081 1087.1 4.99396 1088.61 6.09517C1089.28 6.58759 1090.28 6.43098 1091.19 6.28784C1093.08 5.99203 1093.61 3.59784 1094.77 2.40689C1095.4 1.75899 1096.56 2.033 1097.56 2.22449C1100.37 2.7608 1102.12 6.04112 1103.83 6.95646C1104.7 7.4203 1105.7 6.79949 1106.37 6.2246C1107.92 4.90939 1109.14 3.12396 1110.75 2.49352C1112.09 2.41443 1113.21 2.6627 1113.81 3.22431C1114.07 3.53765 1114.25 3.90854 1114.75 4.99847" stroke="#F12E1D" stroke-width="4" stroke-linecap="round"/>
</svg>
