<svg width="141" height="112" viewBox="0 0 141 112" fill="none" xmlns="http://www.w3.org/2000/svg">
<path d="M2 109.639C2 109.516 2.04868 105.077 2.40642 97.1973C2.68175 91.1327 7.91139 79.9997 14.7773 65.7395C18.745 57.4988 22.2593 53.0254 27.9293 47.052C37.4919 36.9777 49.0017 29.4974 59.8132 23.8029C74.6188 16.0048 89.3085 13.5016 99.6242 12.3691C105.158 11.9797 111.3 11.9667 114.922 12.026C118.545 12.0853 119.462 12.2173 120.407 12.3533" stroke="#F12E1D" stroke-width="4" stroke-linecap="round"/>
<path d="M123.117 2.00049C124.188 2.48947 133.116 8.69666 138.23 13.096C138.291 13.7945 137.696 14.6686 135.598 16.7211C133.5 18.7736 129.917 21.9779 124.592 26.8923" stroke="#F12E1D" stroke-width="4" stroke-linecap="round"/>
</svg>
