<svg width="101" height="126" viewBox="0 0 101 126" fill="none" xmlns="http://www.w3.org/2000/svg">
<path d="M2 2C2.12654 2 8.0289 2.10145 20.8689 3.14366C36.0577 4.37653 46.0814 8.50062 51.0193 10.9787C64.4889 17.7387 70.2653 26.2984 76.322 37.3827C78.4902 41.3507 80.184 47.3409 81.8898 54.6223C83.5957 61.9037 84.8349 70.5007 85.5671 80.0773C86.2993 89.6538 86.4869 99.9493 86.6803 110.557" stroke="#F12E1D" stroke-width="4" stroke-linecap="round"/>
<path d="M77.707 116.834C79.0804 117.607 83.0916 121.062 86.3791 123.741C88.6358 123.931 91.7172 120.892 95.1157 118.051C95.9588 117.598 96.9122 117.264 98.4664 116.804" stroke="#F12E1D" stroke-width="4" stroke-linecap="round"/>
</svg>
